<?xml version="1.0" encoding="utf-8"?>
<!-- Generator: Adobe Illustrator 18.1.0, SVG Export Plug-In . SVG Version: 6.00 Build 0)  -->
<svg version="1.1" id="Calque_1" xmlns="http://www.w3.org/2000/svg" xmlns:xlink="http://www.w3.org/1999/xlink" x="0px" y="0px"
	 viewBox="0 0 264 88" enable-background="new 0 0 264 88" xml:space="preserve">
<path id="Shape" fill="#14A355" d="M67,59.5v3.8c-6.3,0.8-9.2,5.8-10,9.7c2.2-2.8,5.6-5.1,10-5.1v3.6l6-5.9L67,59.5z"/>
<g>
	<path id="Shape_1_" fill="#14A355" d="M13,29v-5h2v3h3v2H13z M13,15h5v2h-3v3h-2V15z M31,15v5h-2v-3h-3v-2H31z M31,29h-5v-2h3v-3h2
		V29z"/>
</g>
<g>
	<path fill="#14A355" d="M62,24v5h-2v-3h-3v-2H62z M62,20h-5v-2h3v-3h2V20z M70,20v-5h2v3h3v2H70z M70,24h5v2h-3v3h-2V24z"/>
</g>
<path fill="#14A355" d="M20.6,66l-5.7-5.7l1.4-1.4l5.7,5.7l5.7-5.7l1.4,1.4L23.4,66l5.7,5.7l-1.4,1.4L22,67.4l-5.7,5.7l-1.4-1.4
	L20.6,66z"/>
<path fill="#14A355" d="M111.8,65l-1.8-1.5l3-3.5h-10v-2h10l-3-3.5l1.8-1.5l5.2,6L111.8,65z"/>
<path fill="#14A355" d="M152.2,65l1.8-1.5l-3-3.5h10v-2h-10l3-3.5l-1.8-1.5l-5.2,6L152.2,65z"/>
<g>
	<path id="Rectangle-11" fill="#14A355" d="M161,28.5l-3.2-3.2l-1.4,1.4l3.2,3.2L161,28.5z"/>
	<path fill="#14A355" d="M152.5,16.8c-2.6,0-4.8,2.1-4.8,4.8s2.1,4.8,4.8,4.8s4.8-2.1,4.8-4.8S155.1,16.8,152.5,16.8z M155,22h-5v-1
		h5V22z"/>
</g>
<g>
	<path fill="#14A355" d="M117,28.5l-1.4,1.4l-3.2-3.2l1.4-1.4L117,28.5z"/>
	<path fill="#14A355" d="M108.5,16.8c-2.6,0-4.8,2.1-4.8,4.8s2.1,4.8,4.8,4.8s4.8-2.1,4.8-4.8S111.1,16.8,108.5,16.8z M111,22h-2
		l0,2l-1,0l0-2h-2v-1h2l0-2l1,0l0,2h2V22z"/>
</g>
</svg>
