<?xml version="1.0" encoding="UTF-8" standalone="no"?>
<svg width="250px" height="23px" viewBox="0 0 250 23" version="1.1" xmlns="http://www.w3.org/2000/svg" xmlns:xlink="http://www.w3.org/1999/xlink" xmlns:sketch="http://www.bohemiancoding.com/sketch/ns">
    <!-- Generator: Sketch 3.3.2 (12043) - http://www.bohemiancoding.com/sketch -->
    <title>Imported Layers</title>
    <desc>Created with Sketch.</desc>
    <defs></defs>
    <g id="Page-1" stroke="none" stroke-width="1" fill="none" fill-rule="evenodd" sketch:type="MSPage">
        <g id="Imported-Layers" sketch:type="MSLayerGroup">
            <path d="M10.2708333,22.1045296 L6.2109375,22.1045296 L0.466145833,7.1039489 L4.8359375,7.1039489 L7.3046875,13.8656601 C7.6796875,14.8923732 8.0546875,16.0977545 8.3359375,17.1848626 L8.3984375,17.1848626 C8.6484375,16.1606659 8.9609375,15.013163 9.3359375,13.9864499 L11.8333333,7.1039489 L16.0807292,7.1039489 L10.2708333,22.1045296" id="Fill-1" fill="#9EC850" sketch:type="MSShapeGroup"></path>
            <path d="M25.9505208,22.1045296 C25.9505208,21.2313202 25.984375,20.3555943 26.1067708,19.5679443 L26.078125,19.5402633 C25.328125,21.2313202 23.421875,22.4065041 21.109375,22.4065041 C18.2994792,22.4065041 16.6744792,20.8664344 16.6744792,18.4531552 C16.6744792,14.8596593 20.3619792,12.9597367 25.640625,12.9597367 L25.640625,12.1444057 C25.640625,10.5766551 24.859375,9.76132404 22.609375,9.76132404 C21.2057292,9.76132404 19.3307292,10.2142857 18.0182292,10.9390244 L17.6744792,7.71041425 C19.2369792,7.16686024 21.234375,6.771777 23.234375,6.771777 C28.2317708,6.771777 29.6380208,8.73461092 29.6380208,11.995935 L29.6380208,18.2417731 C29.6380208,19.4496709 29.6692708,20.8664344 29.7317708,22.1045296 L25.9505208,22.1045296 L25.9505208,22.1045296 Z M25.640625,15.4661247 C21.4244792,15.4661247 20.4869792,16.6413086 20.4869792,17.8492063 C20.4869792,18.8155246 21.171875,19.4496709 22.328125,19.4496709 C24.296875,19.4496709 25.640625,17.6378242 25.640625,15.828494 L25.640625,15.4661247 L25.640625,15.4661247 Z" id="Fill-2" fill="#9EC850" sketch:type="MSShapeGroup"></path>
            <path d="M43.7630208,22.1045296 C43.7630208,21.4125048 43.7942708,20.2348045 43.9505208,19.4496709 L43.9192708,19.4194735 C42.9817708,21.2011227 41.2005208,22.4367015 38.640625,22.4367015 C35.1432292,22.4367015 34.0182292,20.2650019 34.0182292,17.6378242 L34.0182292,7.1039489 L37.984375,7.1039489 L37.984375,16.7042199 C37.984375,18.2719706 38.421875,19.2080914 39.921875,19.2080914 C41.9505208,19.2080914 43.5130208,16.9734804 43.5130208,14.3488192 L43.5130208,7.1039489 L47.5104167,7.1039489 L47.5104167,22.1045296 L43.7630208,22.1045296" id="Fill-3" fill="#9EC850" sketch:type="MSShapeGroup"></path>
            <path d="M61.2005208,22.1045296 C61.2005208,21.3797909 61.2630208,20.4134727 61.3880208,19.6006581 L61.3255208,19.6006581 C60.5130208,21.2590012 58.7942708,22.4367015 56.421875,22.4367015 C52.640625,22.4367015 50.7682292,19.6912505 50.7682292,15.4057298 C50.7682292,10.332559 53.828125,6.83468835 58.9817708,6.83468835 C59.6380208,6.83468835 60.2630208,6.86488579 60.9505208,6.95547813 L60.9505208,0.0729771583 L64.9166667,0.0729771583 L64.9166667,22.1045296 L61.2005208,22.1045296 L61.2005208,22.1045296 Z M60.9505208,10.1211769 C60.2317708,9.97270616 59.5442708,9.88211382 58.8567708,9.88211382 C56.578125,9.88211382 54.953125,11.2711963 54.953125,14.9829655 C54.953125,17.7888115 55.796875,19.2357724 57.609375,19.2357724 C59.7005208,19.2357724 60.9505208,16.8828881 60.9505208,14.3161053 L60.9505208,10.1211769 L60.9505208,10.1211769 Z" id="Fill-4" fill="#9EC850" sketch:type="MSShapeGroup"></path>
            <path d="M75.3880208,22.4065041 C70.984375,22.4065041 68.1432292,20.2020906 68.1432292,14.8596593 C68.1432292,10.1840883 71.359375,6.80197445 76.0755208,6.80197445 C80.4791667,6.80197445 83.3229167,9.15737515 83.3229167,14.3161053 C83.3229167,19.0243902 80.0416667,22.4065041 75.3880208,22.4065041 L75.3880208,22.4065041 Z M75.7942708,10.0632985 C74.0130208,10.0632985 72.265625,11.3894696 72.265625,14.469609 C72.265625,17.5497484 73.421875,19.117499 75.7317708,19.117499 C77.7005208,19.117499 79.2005208,17.5774293 79.2005208,14.5274874 C79.2005208,11.6310492 78.1380208,10.0632985 75.7942708,10.0632985 L75.7942708,10.0632985 Z" id="Fill-5" fill="#9EC850" sketch:type="MSShapeGroup"></path>
            <path d="M88.546875,5.17382888 C87.171875,5.17382888 86.078125,4.11691831 86.078125,2.81842818 C86.078125,1.5501355 87.171875,0.495741386 88.546875,0.495741386 C89.921875,0.495741386 91.0442708,1.51993806 91.0442708,2.81842818 C91.0442708,4.11691831 89.921875,5.17382888 88.546875,5.17382888 L88.546875,5.17382888 Z M86.546875,7.1039489 L90.5442708,7.1039489 L90.5442708,22.1045296 L86.546875,22.1045296 L86.546875,7.1039489 Z" id="Fill-6" fill="#9EC850" sketch:type="MSShapeGroup"></path>
            <path d="M97.546875,22.4065041 C96.421875,22.4065041 95.296875,22.2857143 94.296875,22.1347271 L94.390625,18.9665118 C95.359375,19.2080914 96.546875,19.4194735 97.734375,19.4194735 C99.2630208,19.4194735 100.263021,18.8155246 100.263021,17.8190089 C100.263021,15.1616338 93.984375,16.671506 93.984375,11.5731707 C93.984375,8.94599303 96.203125,6.771777 100.575521,6.771777 C101.481771,6.771777 102.481771,6.89256678 103.416667,7.04607046 L103.294271,10.0934959 C102.419271,9.85191638 101.388021,9.70092915 100.419271,9.70092915 C98.8567708,9.70092915 98.1067708,10.304878 98.1067708,11.2409988 C98.1067708,13.6844754 104.479167,12.5973674 104.479167,17.4566396 C104.479167,20.4134727 101.794271,22.4065041 97.546875,22.4065041" id="Fill-7" fill="#9EC850" sketch:type="MSShapeGroup"></path>
            <path d="M120.479167,15.2245451 L110.856771,15.2245451 C110.828125,18.030391 112.263021,19.389276 115.135417,19.389276 C116.666667,19.389276 118.322917,19.0571041 119.666667,18.4531552 L120.041667,21.4401858 C118.385417,22.0768486 116.416667,22.4065041 114.481771,22.4065041 C109.546875,22.4065041 106.796875,20.0234224 106.796875,14.7388695 C106.796875,10.1538908 109.421875,6.771777 114.075521,6.771777 C118.604167,6.771777 120.604167,9.76132404 120.604167,13.4756098 C120.604167,13.9864499 120.570312,14.5903988 120.479167,15.2245451 L120.479167,15.2245451 Z M113.950521,9.61033682 C112.294271,9.61033682 111.138021,10.7880372 110.919271,12.5973674 L116.635417,12.5973674 C116.697917,10.7276423 115.635417,9.61033682 113.950521,9.61033682 L113.950521,9.61033682 Z" id="Fill-8" fill="#9EC850" sketch:type="MSShapeGroup"></path>
            <path d="M130.075521,22.4065041 C125.671875,22.4065041 122.830729,20.2020906 122.830729,14.8596593 C122.830729,10.1840883 126.044271,6.80197445 130.760417,6.80197445 C135.166667,6.80197445 138.007813,9.15737515 138.007813,14.3161053 C138.007813,19.0243902 134.729167,22.4065041 130.075521,22.4065041 L130.075521,22.4065041 Z M130.481771,10.0632985 C128.700521,10.0632985 126.953125,11.3894696 126.953125,14.469609 C126.953125,17.5497484 128.106771,19.117499 130.419271,19.117499 C132.385417,19.117499 133.885417,17.5774293 133.885417,14.5274874 C133.885417,11.6310492 132.822917,10.0632985 130.481771,10.0632985 L130.481771,10.0632985 Z" id="Fill-9" fill="#FFFFFF" sketch:type="MSShapeGroup"></path>
            <path d="M150.760417,22.1045296 L150.760417,12.5092915 C150.760417,10.9390244 150.322917,10.0029036 148.854167,10.0029036 C146.825521,10.0029036 145.234375,12.2349981 145.234375,14.8596593 L145.234375,22.1045296 L141.234375,22.1045296 L141.234375,7.1039489 L145.015625,7.1039489 C145.015625,7.80100658 144.950521,8.97619048 144.796875,9.76132404 L144.825521,9.79152149 C145.763021,8.0123887 147.572917,6.771777 150.106771,6.771777 C153.601562,6.771777 154.726562,8.94599303 154.726562,11.5731707 L154.726562,22.1045296 L150.760417,22.1045296" id="Fill-10" fill="#FFFFFF" sketch:type="MSShapeGroup"></path>
            <path d="M164.132813,22.4065041 C160.697917,22.4065041 159.638021,21.2011227 159.638021,17.6982191 L159.638021,10.0934959 L156.950521,10.0934959 L156.950521,7.1039489 L159.604167,7.1039489 L159.604167,2.48625629 L163.601563,1.46205962 L163.601563,7.1039489 L167.380208,7.1039489 L167.380208,10.0934959 L163.601563,10.0934959 L163.601563,16.671506 C163.601563,18.6041425 164.072917,19.14518 165.445312,19.14518 C166.101563,19.14518 166.820312,19.0571041 167.380208,18.9061169 L167.380208,22.0139373 C166.382812,22.2555168 165.226563,22.4065041 164.132813,22.4065041" id="Fill-11" fill="#FFFFFF" sketch:type="MSShapeGroup"></path>
            <path d="M176.627604,22.4065041 C172.226562,22.4065041 169.382812,20.2020906 169.382812,14.8596593 C169.382812,10.1840883 172.598958,6.80197445 177.315104,6.80197445 C181.71875,6.80197445 184.559896,9.15737515 184.559896,14.3161053 C184.559896,19.0243902 181.28125,22.4065041 176.627604,22.4065041 L176.627604,22.4065041 Z M177.03125,10.0632985 C175.252604,10.0632985 173.505208,11.3894696 173.505208,14.469609 C173.505208,17.5497484 174.661458,19.117499 176.971354,19.117499 C178.940104,19.117499 180.440104,17.5774293 180.440104,14.5274874 C180.440104,11.6310492 179.377604,10.0632985 177.03125,10.0632985 L177.03125,10.0632985 Z" id="Fill-12" fill="#FFFFFF" sketch:type="MSShapeGroup"></path>
            <path d="M197.53125,22.1045296 C197.53125,21.4125048 197.5625,20.2348045 197.71875,19.4496709 L197.6875,19.4194735 C196.752604,21.2011227 194.971354,22.4367015 192.411458,22.4367015 C188.911458,22.4367015 187.786458,20.2650019 187.786458,17.6378242 L187.786458,7.1039489 L191.755208,7.1039489 L191.755208,16.7042199 C191.755208,18.2719706 192.192708,19.2080914 193.690104,19.2080914 C195.71875,19.2080914 197.28125,16.9734804 197.28125,14.3488192 L197.28125,7.1039489 L201.278646,7.1039489 L201.278646,22.1045296 L197.53125,22.1045296" id="Fill-13" fill="#FFFFFF" sketch:type="MSShapeGroup"></path>
            <path d="M213.908854,10.5766551 C211.033854,10.0029036 209.596354,11.8122338 209.596354,15.9794812 L209.596354,22.1045296 L205.598958,22.1045296 L205.598958,7.1039489 L209.377604,7.1039489 C209.377604,7.85888502 209.286458,9.06426636 209.098958,10.1211769 L209.158854,10.1211769 C209.908854,8.22377081 211.411458,6.56039489 214.096354,6.771777 L213.908854,10.5766551" id="Fill-14" fill="#FFFFFF" sketch:type="MSShapeGroup"></path>
            <path d="M219.221354,19.9907085 C219.221354,21.3495935 218.096354,22.466899 216.690104,22.466899 C215.286458,22.466899 214.130208,21.3495935 214.130208,19.9907085 C214.130208,18.6343399 215.286458,17.5170345 216.690104,17.5170345 C218.096354,17.5170345 219.221354,18.6343399 219.221354,19.9907085" id="Fill-15" fill="#9EC850" sketch:type="MSShapeGroup"></path>
            <path d="M228.78125,22.3788231 C224.471354,22.3788231 221.786458,20.2020906 221.786458,15.1037553 C221.786458,10.4256678 224.315104,6.83468835 229.8125,6.83468835 C230.872396,6.83468835 232,6.98315912 233,7.25745257 L232.591146,10.6068525 C231.747396,10.304878 230.78125,10.0632985 229.78125,10.0632985 C227.252604,10.0632985 225.971354,11.8751452 225.971354,14.7111885 C225.971354,17.2754549 227.002604,19.0243902 229.65625,19.0243902 C230.71875,19.0243902 231.872396,18.8155246 232.716146,18.3927604 L233.028646,21.6817654 C231.966146,22.0768486 230.434896,22.3788231 228.78125,22.3788231" id="Fill-16" fill="#9EC850" sketch:type="MSShapeGroup"></path>
            <path d="M245.684896,22.1045296 L245.684896,12.5092915 C245.684896,10.9390244 245.247396,10.0029036 243.778646,10.0029036 C241.75,10.0029036 240.15625,12.2349981 240.15625,14.8596593 L240.15625,22.1045296 L236.158854,22.1045296 L236.158854,0.0729771583 L240.15625,0.0729771583 L240.15625,6.50251645 C240.15625,7.40592334 240.09375,8.67421603 239.875,9.54994193 L239.9375,9.58013937 C240.84375,7.89159892 242.625,6.771777 245.028646,6.771777 C248.528646,6.771777 249.651042,8.94599303 249.651042,11.5731707 L249.651042,22.1045296 L245.684896,22.1045296" id="Fill-17" fill="#9EC850" sketch:type="MSShapeGroup"></path>
        </g>
    </g>
</svg>