<svg id="Calque_1" xmlns="http://www.w3.org/2000/svg" viewBox="0 0 264 88"><path id="Shape" fill="#14A355" d="M67 59.5v3.8c-6.3.8-9.2 5.8-10 9.7 2.2-2.8 5.6-5.1 10-5.1v3.6l6-5.9-6-6.1z"/><path id="Shape_1_" fill="#14A355" d="M13 29v-5h2v3h3v2h-5zm0-14h5v2h-3v3h-2v-5zm18 0v5h-2v-3h-3v-2h5zm0 14h-5v-2h3v-3h2v5z"/><path fill="#14A355" d="M62 24v5h-2v-3h-3v-2h5zm0-4h-5v-2h3v-3h2v5zm8 0v-5h2v3h3v2h-5zm0 4h5v2h-3v3h-2v-5zM20.6 66l-5.7-5.7 1.4-1.4 5.7 5.7 5.7-5.7 1.4 1.4-5.7 5.7 5.7 5.7-1.4 1.4-5.7-5.7-5.7 5.7-1.4-1.4 5.7-5.7zM111.8 65l-1.8-1.5 3-3.5h-10v-2h10l-3-3.5 1.8-1.5 5.2 6-5.2 6zM152.2 65l1.8-1.5-3-3.5h10v-2h-10l3-3.5-1.8-1.5-5.2 6 5.2 6z"/><g fill="#14A355"><path id="Rectangle-11" d="M161 28.5l-3.2-3.2-1.4 1.4 3.2 3.2 1.4-1.4z"/><path d="M152.5 16.8c-2.6 0-4.8 2.1-4.8 4.8s2.1 4.8 4.8 4.8 4.8-2.1 4.8-4.8-2.2-4.8-4.8-4.8zM155 22h-5v-1h5v1z"/></g><g fill="#14A355"><path d="M117 28.5l-1.4 1.4-3.2-3.2 1.4-1.4 3.2 3.2zM108.5 16.8c-2.6 0-4.8 2.1-4.8 4.8s2.1 4.8 4.8 4.8 4.8-2.1 4.8-4.8-2.2-4.8-4.8-4.8zM111 22h-2v2h-1v-2h-2v-1h2v-2h1v2h2v1z"/></g></svg>