<svg width="250" height="23" viewBox="0 0 250 23" xmlns="http://www.w3.org/2000/svg"><title>Imported Layers</title><g id="Page-1" fill="none" fill-rule="evenodd"><g id="Imported-Layers"><path d="M10.27 22.105H6.21l-5.744-15h4.37l2.47 6.76c.374 1.027.75 2.233 1.03 3.32h.062c.25-1.024.563-2.172.938-3.2l2.497-6.88h4.248l-5.81 15" id="Fill-1" fill="#9EC850"/><path d="M25.95 22.105c0-.874.034-1.75.157-2.537l-.03-.028c-.75 1.69-2.655 2.867-4.968 2.867-2.81 0-4.436-1.54-4.436-3.954 0-3.593 3.688-5.493 8.967-5.493v-.816c0-1.567-.78-2.383-3.03-2.383-1.404 0-3.28.454-4.592 1.18l-.344-3.23c1.563-.543 3.56-.938 5.56-.938 4.998 0 6.404 1.963 6.404 5.224v6.246c0 1.208.03 2.624.094 3.863h-3.78zm-.31-6.64c-4.216 0-5.153 1.176-5.153 2.384 0 .966.685 1.6 1.84 1.6 1.97 0 3.314-1.812 3.314-3.622v-.362z" id="Fill-2" fill="#9EC850"/><path d="M43.763 22.105c0-.692.03-1.87.188-2.655l-.03-.03c-.938 1.78-2.72 3.017-5.28 3.017-3.497 0-4.622-2.172-4.622-4.8V7.105h3.966v9.6c0 1.568.438 2.504 1.938 2.504 2.03 0 3.59-2.235 3.59-4.86V7.105h3.998v15h-3.747" id="Fill-3" fill="#9EC850"/><path d="M61.2 22.105c0-.725.063-1.692.188-2.504h-.062c-.813 1.66-2.532 2.837-4.904 2.837-3.78 0-5.654-2.746-5.654-7.03 0-5.074 3.06-8.572 8.214-8.572.656 0 1.28.03 1.97.12V.073h3.965v22.032H61.2zm-.25-11.984c-.718-.147-1.406-.238-2.093-.238-2.28 0-3.904 1.39-3.904 5.1 0 2.807.844 4.254 2.656 4.254 2.09 0 3.34-2.353 3.34-4.92V10.12z" id="Fill-4" fill="#9EC850"/><path d="M75.388 22.407c-4.404 0-7.245-2.205-7.245-7.547 0-4.676 3.216-8.058 7.933-8.058 4.403 0 7.247 2.355 7.247 7.514 0 4.708-3.28 8.09-7.935 8.09zm.406-12.344c-1.78 0-3.528 1.326-3.528 4.407 0 3.08 1.156 4.647 3.466 4.647 1.97 0 3.47-1.54 3.47-4.59 0-2.896-1.064-4.464-3.408-4.464z" id="Fill-5" fill="#9EC850"/><path d="M88.547 5.174c-1.375 0-2.47-1.057-2.47-2.356 0-1.268 1.095-2.322 2.47-2.322 1.375 0 2.497 1.024 2.497 2.322 0 1.3-1.122 2.356-2.497 2.356zm-2 1.93h3.997v15h-3.997v-15z" id="Fill-6" fill="#9EC850"/><path d="M97.547 22.407c-1.125 0-2.25-.12-3.25-.272l.094-3.168c.97.24 2.157.452 3.344.452 1.53 0 2.53-.604 2.53-1.6 0-2.658-6.28-1.148-6.28-6.247 0-2.627 2.22-4.8 6.592-4.8.906 0 1.906.12 2.84.273l-.122 3.047c-.875-.24-1.906-.392-2.875-.392-1.563 0-2.313.605-2.313 1.54 0 2.444 6.372 1.357 6.372 6.217 0 2.956-2.686 4.95-6.933 4.95" id="Fill-7" fill="#9EC850"/><path d="M120.48 15.225h-9.623c-.03 2.805 1.406 4.164 4.278 4.164 1.532 0 3.188-.333 4.532-.937l.375 2.987c-1.657.637-3.625.967-5.56.967-4.935 0-7.685-2.384-7.685-7.668 0-4.586 2.625-7.968 7.28-7.968 4.527 0 6.527 2.99 6.527 6.704 0 .51-.034 1.114-.125 1.75zm-6.53-5.615c-1.656 0-2.812 1.178-3.03 2.987h5.715c.063-1.87-1-2.987-2.684-2.987z" id="Fill-8" fill="#9EC850"/><path d="M130.076 22.407c-4.404 0-7.245-2.205-7.245-7.547 0-4.676 3.214-8.058 7.93-8.058 4.407 0 7.248 2.355 7.248 7.514 0 4.708-3.28 8.09-7.932 8.09zm.406-12.344c-1.78 0-3.53 1.326-3.53 4.407 0 3.08 1.155 4.647 3.467 4.647 1.965 0 3.465-1.54 3.465-4.59 0-2.896-1.062-4.464-3.403-4.464z" id="Fill-9" fill="#FFF"/><path d="M150.76 22.105V12.51c0-1.57-.437-2.507-1.906-2.507-2.028 0-3.62 2.232-3.62 4.857v7.245h-4v-15h3.782c0 .696-.065 1.87-.22 2.656l.03.032c.937-1.78 2.747-3.02 5.28-3.02 3.496 0 4.62 2.174 4.62 4.8v10.533h-3.966" id="Fill-10" fill="#FFF"/><path d="M164.133 22.407c-3.435 0-4.495-1.206-4.495-4.71v-7.604h-2.687v-2.99h2.654V2.487l3.998-1.024v5.642h3.778v2.99h-3.778v6.578c0 1.932.47 2.473 1.843 2.473.657 0 1.375-.088 1.935-.24v3.11c-.997.24-2.153.392-3.247.392" id="Fill-11" fill="#FFF"/><path d="M176.628 22.407c-4.4 0-7.245-2.205-7.245-7.547 0-4.676 3.216-8.058 7.932-8.058 4.404 0 7.245 2.355 7.245 7.514 0 4.708-3.28 8.09-7.932 8.09zm.403-12.344c-1.777 0-3.525 1.326-3.525 4.407 0 3.08 1.156 4.647 3.466 4.647 1.97 0 3.47-1.54 3.47-4.59 0-2.896-1.062-4.464-3.41-4.464z" id="Fill-12" fill="#FFF"/><path d="M197.53 22.105c0-.692.032-1.87.19-2.655l-.032-.03c-.935 1.78-2.717 3.017-5.277 3.017-3.5 0-4.624-2.172-4.624-4.8V7.105h3.97v9.6c0 1.568.437 2.504 1.934 2.504 2.03 0 3.59-2.235 3.59-4.86V7.105h4v15h-3.75" id="Fill-13" fill="#FFF"/><path d="M213.91 10.577c-2.876-.574-4.314 1.235-4.314 5.402v6.125H205.6v-15h3.778c0 .754-.092 1.96-.28 3.016h.06c.75-1.896 2.253-3.56 4.938-3.348l-.187 3.805" id="Fill-14" fill="#FFF"/><path d="M219.22 19.99c0 1.36-1.124 2.477-2.53 2.477-1.404 0-2.56-1.117-2.56-2.476 0-1.356 1.156-2.473 2.56-2.473 1.406 0 2.53 1.117 2.53 2.474" id="Fill-15" fill="#9EC850"/><path d="M228.78 22.38c-4.31 0-6.994-2.178-6.994-7.276 0-4.678 2.53-8.27 8.026-8.27 1.06 0 2.188.15 3.188.423l-.41 3.35c-.843-.302-1.81-.544-2.81-.544-2.527 0-3.81 1.812-3.81 4.648 0 2.565 1.033 4.314 3.686 4.314 1.063 0 2.216-.208 3.06-.63l.313 3.288c-1.064.395-2.595.697-4.25.697" id="Fill-16" fill="#9EC850"/><path d="M245.685 22.105V12.51c0-1.57-.438-2.507-1.906-2.507-2.03 0-3.624 2.232-3.624 4.857v7.245h-3.997V.073h3.996v6.43c0 .903-.062 2.17-.28 3.047l.06.03c.908-1.688 2.69-2.808 5.093-2.808 3.5 0 4.62 2.174 4.62 4.8v10.533h-3.965" id="Fill-17" fill="#9EC850"/></g></g></svg>