<?xml version="1.0" encoding="UTF-8" standalone="no"?>
<svg width="84px" height="92px" viewBox="0 0 84 92" version="1.1" xmlns="http://www.w3.org/2000/svg" xmlns:xlink="http://www.w3.org/1999/xlink" xmlns:sketch="http://www.bohemiancoding.com/sketch/ns">
    <!-- Generator: Sketch 3.3.2 (12043) - http://www.bohemiancoding.com/sketch -->
    <title>Imported Layers</title>
    <desc>Created with Sketch.</desc>
    <defs></defs>
    <g id="Page-1" stroke="none" stroke-width="1" fill="none" fill-rule="evenodd" sketch:type="MSPage">
        <path d="M75.5066509,16.3281648 L75.5066509,57.2661648 C75.5066509,57.2661648 71.6906509,55.9491648 66.3336509,56.9711648 C58.1366509,58.5471648 52.4396509,65.7561648 54.0986509,72.1841648 C55.7556509,78.6041648 63.6526509,82.1201648 71.7376509,80.0341648 C78.6126509,78.2581648 83.4276509,72.4011648 83.6866509,66.9151648 L83.6866509,23.9711648 L83.6866509,16.7421648 L83.6866509,3.08016476 C83.6866509,1.12816476 81.8946509,-0.330835236 79.9826509,0.0651647637 L24.1526509,11.6311648 C22.7226509,11.9271648 21.6976509,13.1861648 21.6976509,14.6461648 L21.6976509,68.2971648 C21.6976509,68.2971648 17.8756509,66.9801648 12.5236509,68.0021648 C4.32765091,69.5781648 -1.37034909,76.7871648 0.287650913,83.2151648 C1.94665091,89.6351648 9.84365091,93.1521648 17.9286509,91.0651648 C24.8036509,89.2891648 29.6186509,83.4321648 29.8776509,77.9461648 L29.8776509,25.1951648 C29.8776509,24.5481648 30.3316509,23.9901648 30.9656509,23.8591648 L73.8676509,14.9931648 C74.7136509,14.8181648 75.5066509,15.4641648 75.5066509,16.3281648" id="Imported-Layers" fill="#000000" sketch:type="MSShapeGroup"></path>
    </g>
</svg>