<?xml version="1.0" encoding="UTF-8" standalone="no"?>
<svg width="211px" height="209px" viewBox="0 0 211 209" version="1.1" xmlns="http://www.w3.org/2000/svg" xmlns:xlink="http://www.w3.org/1999/xlink" xmlns:sketch="http://www.bohemiancoding.com/sketch/ns">
    <!-- Generator: Sketch 3.3.2 (12043) - http://www.bohemiancoding.com/sketch -->
    <title>pen</title>
    <desc>Created with Sketch.</desc>
    <defs></defs>
    <g id="Page-1" stroke="none" stroke-width="1" fill="none" fill-rule="evenodd" sketch:type="MSPage">
        <path d="M207.280736,20.4495238 C201.414069,7.1552381 190.571212,0.628571429 178.083593,0 C166.308355,0.0523809524 158.095022,3.71904762 151.201689,10.6228571 C111.895022,49.9609524 72.7140695,89.4247619 33.1245457,128.469524 C25.225498,136.26381 19.6102599,144.62381 16.5093076,155.309524 C12.0464504,170.688571 6.51502185,185.76381 1.45502185,200.975238 C0.334069466,204.359048 1.02549804,207.386667 3.66549804,208.42381 C5.38359328,209.104762 7.71978375,209.188571 9.47978375,208.612381 C28.4312123,202.452381 47.3407361,196.177143 66.1874028,189.734286 C68.7121647,188.875238 71.2264504,187.30381 73.1226409,185.428571 C114.87026,143.817143 156.544546,102.121905 198.229308,60.4371429 C199.276927,59.3895238 200.387403,58.3838095 201.340736,57.252381 C210.737879,46.1895238 213.157879,33.7542857 207.280736,20.4495238 L207.280736,20.4495238 Z M15.6502599,194.61619 C16.8759742,190.928571 17.9235933,187.764762 19.0864504,184.255238 C21.537879,186.685714 23.6750218,188.801905 26.0426409,191.148571 C22.6274028,192.290476 19.4007361,193.369524 15.6502599,194.61619 L15.6502599,194.61619 Z M37.9016885,187.377143 C33.6169266,189.179048 30.725498,188.529524 28.0435933,184.88381 C26.6816885,183.04 24.9007361,181.468571 23.1512123,179.96 C21.6112123,178.629524 21.265498,177.372381 21.977879,175.381905 C24.2197838,169.117143 26.2207361,162.758095 28.3369266,156.430476 C28.5988314,155.665714 28.9340695,154.921905 29.185498,154.30381 C38.1216885,163.250476 46.9950218,172.134286 56.0045457,181.154286 C50.0435933,183.165714 43.8102599,184.88381 37.9016885,187.377143 L37.9016885,187.377143 Z M66.6588314,174.648571 L55.0197838,162.873333 C54.977879,162.915238 54.9359742,162.957143 54.8940695,162.988571 C52.3274028,160.421905 49.7712123,157.87619 47.3826409,155.498095 C47.445498,155.435238 47.497879,155.382857 47.5607361,155.32 L35.5759742,143.209524 L82.0902599,96.7057143 C89.3188314,89.487619 96.5474028,82.2590476 103.775974,75.02 L148.037879,30.7790476 L172.457879,55.1361905 C172.478831,55.1152381 172.51026,55.0838095 172.541689,55.0628571 C174.689308,57.2628571 177.151212,59.7771429 179.298831,61.9666667 C141.804546,99.4714286 104.257879,137.039048 66.6588314,174.648571 L66.6588314,174.648571 Z M188.423593,53.9314286 C177.591212,43.1409524 166.957879,32.5495238 156.282641,21.9161905 C162.61026,14.1533333 170.572165,9.63809524 180.985498,12.0057143 C190.194069,14.1009524 196.196927,20.0409524 198.271212,29.3019048 C200.607403,39.7361905 196.134069,47.6666667 188.423593,53.9314286 L188.423593,53.9314286 Z" id="pen" fill="#000000" sketch:type="MSShapeGroup"></path>
    </g>
</svg>