<?xml version="1.0" encoding="UTF-8" standalone="no"?>
<svg width="224px" height="235px" viewBox="0 0 224 235" version="1.1" xmlns="http://www.w3.org/2000/svg" xmlns:xlink="http://www.w3.org/1999/xlink" xmlns:sketch="http://www.bohemiancoding.com/sketch/ns">
    <!-- Generator: Sketch 3.3.2 (12043) - http://www.bohemiancoding.com/sketch -->
    <title>calendar</title>
    <desc>Created with Sketch.</desc>
    <defs></defs>
    <g id="Page-1" stroke="none" stroke-width="1" fill="none" fill-rule="evenodd" sketch:type="MSPage">
        <path d="M186.868509,22.2081538 L186.868509,4.70038462 C186.868509,2.10353846 184.765514,0 182.169338,0 L156.179662,0 C153.592791,0 151.48049,2.10353846 151.48049,4.70038462 L151.48049,22.2081538 L72.4227436,22.2081538 L72.4227436,4.70038462 C72.4227436,2.10353846 70.319748,0 67.7142667,0 L41.7338961,0 C39.1377201,0 37.0347245,2.10353846 37.0347245,4.70038462 L37.0347245,22.2081538 L4.51273486,22.2081538 C2.18641228,22.2081538 0.306743632,24.0976154 0.306743632,26.4245385 L0.306743632,229.927923 C0.306743632,232.254846 2.18641228,234.144308 4.51273486,234.144308 L149.209999,234.144308 C156.170357,234.144308 162.84225,231.379923 167.764748,226.456154 L216.626828,177.581462 C221.111978,173.095154 223.633711,167.007923 223.633711,160.669385 L223.633711,26.4245385 C223.633711,24.0976154 221.744737,22.2081538 219.418415,22.2081538 L186.868509,22.2081538 L186.868509,22.2081538 Z M159.594703,8.13492308 L178.735686,8.13492308 L178.735686,47.3761538 L159.594703,47.3761538 L159.594703,8.13492308 Z M45.2047694,8.13492308 L64.3178358,8.13492308 L64.3178358,47.3761538 L45.2047694,47.3761538 L45.2047694,8.13492308 Z M153.648623,170.116692 L153.648623,223.096077 L11.342818,223.096077 L11.342818,90.7593077 L212.569721,90.7593077 L212.569721,164.150462 L159.622619,164.150462 C156.319241,164.150462 153.648623,166.821769 153.648623,170.116692 L153.648623,170.116692 Z" id="calendar" fill="#000000" sketch:type="MSShapeGroup"></path>
    </g>
</svg>