<?xml version="1.0" encoding="UTF-8" standalone="no"?>
<svg width="210px" height="168px" viewBox="0 0 210 168" version="1.1" xmlns="http://www.w3.org/2000/svg" xmlns:xlink="http://www.w3.org/1999/xlink" xmlns:sketch="http://www.bohemiancoding.com/sketch/ns">
    <!-- Generator: Sketch 3.3.2 (12043) - http://www.bohemiancoding.com/sketch -->
    <title>twitter</title>
    <desc>Created with Sketch.</desc>
    <defs></defs>
    <g id="Page-1" stroke="none" stroke-width="1" fill="none" fill-rule="evenodd" sketch:type="MSPage">
        <path d="M185.299895,26.4955625 C194.717368,20.8154375 200.956737,13.0549375 204.018,3.1906875 C194.845895,7.970875 185.720526,11.243375 176.595158,13.0549375 C168.404526,4.3945 158.017263,0 145.573579,0 C133.422,0 123.139895,4.184125 114.762316,12.342 C106.419789,20.5583125 102.213474,30.5394375 102.213474,42.191875 C102.213474,45.7331875 102.669158,48.9005 103.580526,51.5769375 C67.71,50.373125 38.0204211,35.7520625 14.6286316,7.6085625 C10.6676842,14.5041875 8.68136842,21.5166875 8.68136842,28.7629375 C8.68136842,43.6761875 15.0843158,55.4805625 27.8668421,64.1526875 C20.5758947,63.5449375 14.1495789,61.7450625 8.68136842,58.7764375 C8.68136842,69.4120625 11.8594737,78.30625 18.2390526,86.136875 C24.642,93.874 32.8676842,98.8178125 42.9044211,100.921562 C39.2706316,101.833187 35.4265263,102.277313 31.4889474,102.277313 C27.8551579,102.277313 25.2729474,101.973438 23.7423158,101.330625 C26.4296842,109.991063 31.4889474,117.026937 38.8032632,122.414875 C46.0942105,127.826188 54.4717895,130.677937 63.8892632,130.923375 C48.3609474,142.903063 30.6009474,148.828625 10.5157895,148.828625 C5.59673684,148.828625 2.10315789,148.7585 0,148.396187 C19.7813684,161.018687 41.8061053,167.283187 66.1793684,167.283187 C91.1251579,167.283187 113.161579,161.077125 132.347053,148.653312 C151.520842,136.299625 165.682105,121.070812 174.772421,103.118813 C183.921158,85.201875 188.442947,66.548625 188.442947,47.07725 L188.442947,41.7126875 C197.287895,35.179375 204.438632,27.8279375 209.906842,19.705125 C201.973263,23.0594375 193.770947,25.3385 185.299895,26.4955625" id="twitter" fill="#000000" sketch:type="MSShapeGroup"></path>
    </g>
</svg>