<?xml version="1.0" encoding="UTF-8" standalone="no"?>
<svg width="192px" height="233px" viewBox="0 0 192 233" version="1.1" xmlns="http://www.w3.org/2000/svg" xmlns:xlink="http://www.w3.org/1999/xlink" xmlns:sketch="http://www.bohemiancoding.com/sketch/ns">
    <!-- Generator: Sketch 3.3.2 (12043) - http://www.bohemiancoding.com/sketch -->
    <title>music</title>
    <desc>Created with Sketch.</desc>
    <defs></defs>
    <g id="Page-1" stroke="none" stroke-width="1" fill="none" fill-rule="evenodd" sketch:type="MSPage">
        <path d="M186.920261,1.70635328 C184.46113,-0.00531338256 181.097391,-0.479313383 178.269391,0.512575506 L59.1069565,42.2245755 C55.2865217,43.5939088 52.722,47.2191311 52.722,51.2569088 L52.722,164.507798 L51.1586957,163.779242 C46.1438261,161.444353 41.0235652,160.259353 35.9296522,160.259353 C16.116087,160.259353 0,176.375353 0,196.17802 C0,215.971909 16.116087,232.079131 35.9296522,232.079131 C55.7344348,232.079131 71.8505217,215.971909 71.8505217,196.17802 L71.8944348,58.0421311 L171.831739,23.0802422 L171.831739,122.005798 L170.259652,121.268464 C165.341391,118.968687 160.238696,117.792464 155.083304,117.792464 C135.278522,117.792464 119.162435,133.899687 119.162435,153.702353 C119.162435,173.496242 135.278522,189.603464 155.083304,189.603464 C174.89687,189.603464 191.021739,173.496242 191.021739,153.702353 L191.021739,9.57124217 C191.021739,6.44635328 189.537478,3.59357551 186.920261,1.70635328 L186.920261,1.70635328 Z M52.678087,196.17802 C52.678087,205.403464 45.1601739,212.917242 35.9208696,212.917242 C26.6903478,212.917242 19.1812174,205.403464 19.1812174,196.17802 C19.1812174,186.943798 26.6903478,179.421242 35.9208696,179.421242 C45.1601739,179.421242 52.678087,186.943798 52.678087,196.17802 L52.678087,196.17802 Z M171.822957,153.702353 C171.822957,162.927798 164.313826,170.42402 155.083304,170.42402 C145.835217,170.42402 138.299739,162.927798 138.299739,153.702353 C138.299739,144.476909 145.835217,136.971909 155.083304,136.971909 C164.313826,136.971909 171.822957,144.476909 171.822957,153.702353 L171.822957,153.702353 Z" id="music" fill="#000000" sketch:type="MSShapeGroup"></path>
    </g>
</svg>