<?xml version="1.0" encoding="UTF-8" standalone="no"?>
<svg width="100px" height="101px" viewBox="0 0 100 101" version="1.1" xmlns="http://www.w3.org/2000/svg" xmlns:xlink="http://www.w3.org/1999/xlink" xmlns:sketch="http://www.bohemiancoding.com/sketch/ns">
    <!-- Generator: Sketch 3.3.2 (12043) - http://www.bohemiancoding.com/sketch -->
    <title>Imported Layers</title>
    <desc>Created with Sketch.</desc>
    <defs></defs>
    <g id="Page-1" stroke="none" stroke-width="1" fill="none" fill-rule="evenodd" sketch:type="MSPage">
        <path d="M98.1667574,29.4165 C98.9057574,30.3875 99.2587574,31.6485 99.0657574,32.6295 C98.6637574,34.6865 97.7587574,35.3905 96.9907574,35.8625 L81.8367574,43.9185 C80.3737574,44.7425 78.9817574,45.1585 77.7007574,45.1585 C76.0587574,45.1585 75.1827574,44.4745 75.1447574,44.4435 L64.4907574,35.7355 L48.2107574,55.8275 L48.6327574,56.4005 C48.7287574,56.5295 58.1697574,69.3525 60.0457574,71.9985 C61.2337574,73.6745 62.5287574,76.2475 61.9517574,78.9755 C61.4617574,81.2945 59.6777574,83.3875 56.7387574,85.1475 L37.2617574,94.0355 C35.4907574,94.8815 33.5207574,94.7545 31.9987574,93.6555 C31.0027574,92.9375 30.3437574,91.8575 30.1437574,90.6155 C29.9357574,89.3225 30.2507574,88.0155 31.0327574,86.9345 C31.5297574,86.2465 32.1187574,85.7465 32.7117574,85.5595 L51.0577574,77.4745 L38.2637574,61.9035 C38.0297574,61.5835 37.7477574,61.2255 37.4367574,60.8315 C34.9487574,57.6775 30.7847574,52.3985 35.7017574,46.2025 L47.9457574,27.0555 L38.7907574,26.9665 L26.2737574,35.0425 C24.7387574,36.2035 23.5187574,36.7775 22.4897574,36.7955 C20.5717574,36.7955 18.9007574,35.1515 18.8377574,33.2025 C18.7937574,32.0085 19.2267574,31.1055 20.1957574,30.3645 C20.6787574,29.9965 25.3627574,26.7965 28.7817574,24.4615 C30.8817574,23.0275 32.6857574,21.7945 33.2497574,21.4015 C33.5787574,21.1715 33.8907574,20.9255 34.2047574,20.6775 C35.3317574,19.7865 36.3037574,19.0165 38.3197574,18.9415 L54.6577574,17.9565 L56.3127574,17.9745 C58.5617574,18.0315 64.0067574,20.2095 66.0247574,21.8585 C68.1937574,23.6285 69.7287574,25.0545 71.1557574,26.6265 C72.6787574,28.3085 77.5037574,34.6975 77.5517574,34.7615 L77.9957574,35.3505 L92.6177574,28.7875 C93.9927574,28.1685 94.7637574,27.8895 95.6867574,27.9605 C96.6257574,28.0315 97.5067574,28.5485 98.1667574,29.4165 L98.1667574,29.4165 Z M34.1597574,64.9955 C33.9017574,64.6485 33.6407574,64.3155 33.3527574,63.9495 C32.5097574,62.8765 31.4187574,61.4885 30.5297574,59.8665 C28.1857574,62.6215 21.5937574,70.5435 17.0107574,76.0715 L1.19375738,92.3825 C0.707757379,92.7845 0.347757379,93.4665 0.147757379,94.2825 C-0.497242621,96.9045 1.02975738,99.5405 3.55275738,100.1625 C3.95575738,100.2615 4.36275738,100.3115 4.76275738,100.3115 C6.17875738,100.3115 7.53375738,99.6855 8.57675738,98.5485 L25.0367574,81.6845 C27.9687574,79.0535 33.4087574,73.5415 37.6767574,69.1495 L34.1597574,64.9955 L34.1597574,64.9955 Z M59.9537574,9.0705 C59.9537574,21.1735 78.1027574,21.1735 78.1027574,9.0705 C78.1027574,-3.0235 59.9537574,-3.0235 59.9537574,9.0705 L59.9537574,9.0705 Z" id="Imported-Layers" fill="#000000" sketch:type="MSShapeGroup"></path>
    </g>
</svg>