<?xml version="1.0" encoding="UTF-8" standalone="no"?>
<svg width="282px" height="254px" viewBox="0 0 282 254" version="1.1" xmlns="http://www.w3.org/2000/svg" xmlns:xlink="http://www.w3.org/1999/xlink" xmlns:sketch="http://www.bohemiancoding.com/sketch/ns">
    <!-- Generator: Sketch 3.3.2 (12043) - http://www.bohemiancoding.com/sketch -->
    <title>heart</title>
    <desc>Created with Sketch.</desc>
    <defs></defs>
    <g id="Page-1" stroke="none" stroke-width="1" fill="none" fill-rule="evenodd" sketch:type="MSPage">
        <path d="M244.787698,13.5165961 C219.794955,-4.33034137 180.002784,-9.11002887 140.992155,28.1465961 C101.981527,-9.11002887 62.1976695,-4.33034137 37.1966123,13.5165961 C5.15335518,36.3925961 -14.260502,88.0714086 12.8773266,138.785971 C35.6085838,181.271159 80.4392123,222.758846 135.870555,252.617346 C137.283984,253.373784 138.813812,253.739534 140.318698,253.739534 C140.551498,253.739534 140.767669,253.664721 140.992155,253.648096 C141.224955,253.664721 141.441127,253.739534 141.665612,253.739534 C143.170498,253.739534 144.700327,253.373784 146.122069,252.617346 C201.545098,222.758846 246.375727,181.271159 269.106984,138.794284 C296.253127,88.0714086 276.839269,36.3925961 244.787698,13.5165961 L244.787698,13.5165961 Z M252.519984,129.924846 C232.008641,168.270409 191.476498,205.992534 140.992155,233.947471 C90.5078123,205.984221 49.9756695,168.262096 29.4643266,129.924846 C12.7526123,98.7030961 15.1637552,52.3442836 48.1215838,28.8199086 C73.8127266,10.4825336 105.706327,17.3403461 133.442784,47.1739086 C135.463155,49.3434711 138.248441,50.2079711 140.983841,50.0084711 C143.727555,50.2079711 146.521155,49.3434711 148.541527,47.1739086 C176.277984,17.3403461 208.179898,10.4825336 233.862727,28.8199086 C266.820555,52.3442836 269.231698,98.7030961 252.519984,129.924846 L252.519984,129.924846 Z" id="heart" fill="#000000" sketch:type="MSShapeGroup"></path>
    </g>
</svg>