<?xml version="1.0" encoding="UTF-8" standalone="no"?>
<svg width="270px" height="223px" viewBox="0 0 270 223" version="1.1" xmlns="http://www.w3.org/2000/svg" xmlns:xlink="http://www.w3.org/1999/xlink" xmlns:sketch="http://www.bohemiancoding.com/sketch/ns">
    <!-- Generator: Sketch 3.3.2 (12043) - http://www.bohemiancoding.com/sketch -->
    <title>bike</title>
    <desc>Created with Sketch.</desc>
    <defs></defs>
    <g id="Page-1" stroke="none" stroke-width="1" fill="none" fill-rule="evenodd" sketch:type="MSPage">
        <path d="M161.754831,0.077 C150.450321,0.077 141.281107,9.24621367 141.281107,20.5596955 C141.281107,31.8642055 150.450321,41.0334192 161.754831,41.0334192 C173.068313,41.0334192 182.237526,31.8642055 182.237526,20.5596955 C182.237526,9.24621367 173.068313,0.077 161.754831,0.077 Z M130.182949,29.3431203 L129.761273,29.3431203 L129.321653,29.3431203 L128.926893,29.3700358 L128.478301,29.3969513 L128.092512,29.4418105 L127.634949,29.4956415 L127.222244,29.5584443 L126.818512,29.6212472 L126.351976,29.7199373 L126.002075,29.791712 L125.436849,29.9352613 L125.221525,29.9980642 L124.512751,30.2133882 L124.432004,30.2403037 C122.521004,30.8773038 120.681778,31.8552337 119.039932,33.1740932 L118.995073,33.2099805 L118.564425,33.5688538 L118.277326,33.8110933 L118.053031,34.0264173 L117.613411,34.4480935 L117.577523,34.475009 L78.6756542,73.3768783 C76.585217,74.8213435 74.7729067,76.732344 73.4181598,79.0739925 C71.7852862,81.90012 71.0226803,85.0133462 71.0675395,88.0637695 C71.0137085,92.6304327 72.7273287,97.1970958 76.2084,100.678167 C78.200147,102.669914 80.5507673,104.078492 83.0539088,104.912873 L123.723229,128.490851 L123.723229,175.610919 C123.723229,182.079611 128.953808,187.319162 135.4225,187.319162 C141.891192,187.319162 147.130742,182.079611 147.130742,175.610919 L147.130742,117.105594 L147.121771,117.105594 C147.274292,111.901931 144.627601,106.787986 139.809726,103.997746 L113.172353,88.5392767 L138.867684,62.8349742 L154.155688,89.3108543 C155.770618,92.1190382 158.731323,93.689109 161.754831,93.689109 L196.861615,93.689109 C201.706405,93.689109 205.636068,89.7773897 205.636068,84.9236278 C205.636068,80.069866 201.706405,76.140203 196.861615,76.140203 L167.155874,76.140203 L145.201798,38.1175733 L145.183855,38.0996297 L144.789094,37.4446858 L144.708347,37.3190802 L144.385361,36.843573 L144.187981,36.5564743 L143.990601,36.3142348 L143.613784,35.8118122 L143.586868,35.7938685 C142.833234,34.8607978 141.989882,34.0264173 141.083727,33.2817552 L141.029896,33.236896 L140.419811,32.7793325 L140.213459,32.6268113 L139.755895,32.2948535 L139.397022,32.0615858 L139.074036,31.8642055 L138.571613,31.5771068 L138.374233,31.4694448 L137.746205,31.137487 L137.656486,31.0926278 L136.93874,30.7696418 L136.920796,30.7516982 L134.54326,29.9352613 L134.534288,29.9352613 L133.762711,29.7468528 L133.681964,29.737881 L132.973189,29.5943317 L132.811696,29.5674162 L132.174696,29.4776978 L131.941429,29.4418105 L131.385175,29.3879795 L131.062189,29.3700358 L130.57771,29.3431203 L130.182949,29.3431203 Z M214.410521,207.801857 C191.801501,207.801857 173.454101,189.46343 173.454101,166.836466 C173.454101,144.218474 191.801501,125.880047 214.410521,125.880047 C237.037484,125.880047 255.375912,144.218474 255.375912,166.836466 C255.375912,189.46343 237.037484,207.801857 214.410521,207.801857 Z M214.410521,111.246987 C183.717879,111.246987 158.830013,136.134852 158.830013,166.836466 C158.830013,197.53808 183.717879,222.425946 214.410521,222.425946 C245.112134,222.425946 270,197.53808 270,166.836466 C270,136.134852 245.112134,111.246987 214.410521,111.246987 Z M56.4344793,207.801857 C33.8075157,207.801857 15.4780602,189.46343 15.4780602,166.836466 C15.4780602,144.218474 33.8075157,125.880047 56.4344793,125.880047 C79.061443,125.880047 97.3908985,144.218474 97.3908985,166.836466 C97.3908985,189.46343 79.061443,207.801857 56.4344793,207.801857 Z M56.4344793,111.246987 C25.7328657,111.246987 0.845,136.134852 0.845,166.836466 C0.845,197.53808 25.7328657,222.425946 56.4344793,222.425946 C87.136093,222.425946 112.023959,197.53808 112.023959,166.836466 C112.023959,136.134852 87.136093,111.246987 56.4344793,111.246987" id="bike" fill="#000000" sketch:type="MSShapeGroup"></path>
    </g>
</svg>