<?xml version="1.0" encoding="UTF-8" standalone="no"?>
<svg width="219px" height="236px" viewBox="0 0 219 236" version="1.1" xmlns="http://www.w3.org/2000/svg" xmlns:xlink="http://www.w3.org/1999/xlink" xmlns:sketch="http://www.bohemiancoding.com/sketch/ns">
    <!-- Generator: Sketch 3.3.2 (12043) - http://www.bohemiancoding.com/sketch -->
    <title>runner</title>
    <desc>Created with Sketch.</desc>
    <defs></defs>
    <g id="Page-1" stroke="none" stroke-width="1" fill="none" fill-rule="evenodd" sketch:type="MSPage">
        <path d="M162.819172,53.2135513 C177.531607,53.2135513 189.499592,41.275112 189.499592,26.5989982 C189.499592,11.9306617 177.531607,-2.48689958e-14 162.819172,-2.48689958e-14 C148.122331,-2.48689958e-14 136.154346,11.9306617 136.154346,26.5989982 C136.154346,41.275112 148.122331,53.2135513 162.819172,53.2135513 L162.819172,53.2135513 Z M162.819172,10.9818086 C171.457952,10.9818086 178.490605,17.9893224 178.490605,26.5989982 C178.490605,35.2086739 171.457952,42.2239652 162.819172,42.2239652 C154.195986,42.2239652 147.17113,35.2086739 147.17113,26.5989982 C147.17113,17.9893224 154.195986,10.9818086 162.819172,10.9818086 Z M199.892637,95.2119694 L176.900072,93.2598207 L162.663238,61.0765885 L162.421539,61.1854732 C161.813394,59.3422093 160.760835,57.716715 159.061147,56.5656472 L140.754418,44.3083311 C138.735065,42.6439494 136.458419,41.531769 133.979058,40.9873451 L96.8042352,32.9298708 C92.492642,32.0432375 87.9783336,32.9220933 84.3606496,35.3486686 L53.555758,59.0622199 L53.3140593,59.2644345 C43.9891668,67.3296863 41.4864156,74.6794094 45.8369925,81.0880569 C46.873958,82.6279989 49.4000994,85.2101239 54.6550974,85.2101239 C59.0758449,85.2101239 63.6447304,83.4290799 66.2800261,81.8580279 L96.3988051,65.9064065 L107.594914,68.3407593 L83.6823338,103.782758 L83.4874155,104.101635 C80.0724465,109.996968 77.34359,116.117849 77.460541,122.402056 L59.8867051,147.756657 C51.9964115,148.293303 28.5516357,149.903243 19.1955563,150.447667 C1.39561518,151.497627 0,162.129449 0,165.364883 C0,178.921039 16.0690664,180.204324 22.1193311,180.686528 C32.6839042,181.542051 67.7146249,183.665305 69.1960042,183.758634 L69.6482147,183.766412 C75.9635683,183.766412 82.0216297,180.422093 85.7718582,174.868969 L102.659582,150.813209 L124.911457,165.52821 L109.731218,202.930134 C100.08666,226.005932 106.885411,232.943448 111.812946,235.027814 C113.356699,235.681123 114.970623,236 116.607937,236 C124.077207,236 131.078673,229.560243 138.680487,215.630767 L164.378519,166.655945 L164.526657,166.352623 C168.128747,158.302926 165.446671,148.822172 158.141133,143.82125 L130.026114,124.595307 L145.136182,100.453994 L149.931173,111.925784 C152.005104,116.568943 156.854672,121.577643 163.006294,122.316504 L163.388334,122.370946 L163.778171,122.355392 C164.838526,122.332059 189.975193,121.795413 197.085813,121.406538 C202.231657,121.118771 217.895293,120.278803 218.292927,109.21922 C218.776324,96.5885842 206.457486,95.686396 199.892637,95.2119694 Z M76.7042579,168.639204 C74.9733832,171.182441 72.3926646,172.730161 69.6794016,172.776826 C66.8257974,172.613499 33.0581473,170.544688 23.0003619,169.743607 C11.0245803,168.779199 11.0245803,166.212629 11.0245803,165.364883 C11.0245803,162.098339 18.3768994,161.50725 19.8426851,161.421698 C31.1791347,160.760612 62.9742113,158.559583 63.2938774,158.536251 L65.9369698,158.349591 L82.0995971,135.032692 C83.5731796,137.000395 85.3976151,138.968099 87.7288382,140.94358 L93.4750303,144.74677 L76.7042579,168.639204 L76.7042579,168.639204 Z M151.911543,152.874242 C154.788538,154.849723 155.872283,158.551806 154.531245,161.740575 L128.973555,210.45874 C121.231399,224.613762 117.060147,225.025969 116.607937,225.025969 C116.522173,225.025969 116.420815,225.018191 116.280474,224.971526 C115.976401,224.31044 114.541803,219.993936 119.921548,207.106644 L138.501163,161.328368 L94.62115,132.372792 C86.2942393,125.194173 86.9413682,120.138808 92.9214623,109.755866 L125.792488,61.0454785 L94.8004749,54.3101766 L60.9860445,72.2217242 L60.7053621,72.3772739 C59.0992351,73.357237 56.6198741,74.1349855 54.927983,74.2127603 C55.1852752,73.1472449 56.5185165,71.047324 60.4090862,67.6563406 L90.6448163,44.370551 C91.7831393,43.6472449 93.3658761,43.4372528 94.5197925,43.6705774 L131.624444,51.7202742 C132.404118,51.8913789 133.152604,52.2802531 133.838716,52.8635645 L152.098665,65.144213 C152.239006,66.5286053 151.685438,69.3284999 150.929155,70.4562352 L115.095371,127.706301 L151.911543,152.874242 L151.911543,152.874242 Z M196.485465,110.440285 C190.099941,110.790272 167.723317,111.288031 164.051056,111.365805 C162.639848,111.015819 160.799819,109.281439 160.035739,107.570393 L152.285786,89.0210915 L158.55436,79.0114685 L169.461989,103.666095 L199.034997,106.162668 C206.278161,106.68376 207.205973,107.337068 207.291737,108.340364 C206.566641,108.81479 204.024906,110.028078 196.485465,110.440285 L196.485465,110.440285 Z" id="runner" fill="#000000" sketch:type="MSShapeGroup"></path>
    </g>
</svg>