<?xml version="1.0" encoding="UTF-8" standalone="no"?>
<svg width="331px" height="254px" viewBox="0 0 331 254" version="1.1" xmlns="http://www.w3.org/2000/svg" xmlns:xlink="http://www.w3.org/1999/xlink" xmlns:sketch="http://www.bohemiancoding.com/sketch/ns">
    <!-- Generator: Sketch 3.3.2 (12043) - http://www.bohemiancoding.com/sketch -->
    <title>camera</title>
    <desc>Created with Sketch.</desc>
    <defs></defs>
    <g id="Page-1" stroke="none" stroke-width="1" fill="none" fill-rule="evenodd" sketch:type="MSPage">
        <path d="M299.989762,38.4285 L248.914667,38.4285 L219.304,8.7945 C213.553714,3.1185 205.936238,0 197.856095,0 L133.694143,0 C127.729048,0 122.061381,1.6995 117.186857,4.884 L82.668619,38.4285 L30.4864286,38.4285 C13.6817143,38.4285 0,52.0905 0,68.871 L0,222.651 C0,239.4315 13.6817143,253.0935 30.4864286,253.0935 L299.989762,253.0935 C316.811,253.0935 330.47619,239.4315 330.47619,222.651 L330.47619,68.871 C330.47619,52.0905 316.811,38.4285 299.989762,38.4285 L299.989762,38.4285 Z M308.036857,222.651 C308.036857,227.073 304.434667,230.67 299.989762,230.67 L30.4864286,230.67 C26.0580476,230.67 22.4558571,227.073 22.4558571,222.651 L22.4558571,68.871 C22.4558571,64.4655 26.0580476,60.8685 30.4864286,60.8685 L91.955,60.8685 L107.206476,45.606 L127.861238,25.047 C129.447524,23.3145 131.479952,22.407 133.694143,22.407 L197.856095,22.407 C200.020714,22.407 202.003571,23.2485 203.573333,24.7995 L239.611762,60.8685 L299.989762,60.8685 C304.434667,60.8685 308.036857,64.4655 308.036857,68.871 L308.036857,222.651 L308.036857,222.651 Z M165.254619,66.792 C125.167857,66.792 92.566381,99.33 92.566381,139.3425 C92.566381,179.355 125.167857,211.9095 165.254619,211.9095 C205.308333,211.9095 237.90981,179.355 237.90981,139.3425 C237.90981,99.33 205.308333,66.792 165.254619,66.792 L165.254619,66.792 Z M165.254619,187.242 C138.8,187.242 117.286,165.759 117.286,139.3425 C117.286,112.9425 138.8,91.4595 165.254619,91.4595 C191.692714,91.4595 213.206714,112.9425 213.206714,139.3425 C213.206714,165.759 191.692714,187.242 165.254619,187.242 L165.254619,187.242 Z" id="camera" fill="#000000" sketch:type="MSShapeGroup"></path>
    </g>
</svg>