<?xml version="1.0" encoding="UTF-8" standalone="no"?>
<svg width="133px" height="102px" viewBox="0 0 133 102" version="1.1" xmlns="http://www.w3.org/2000/svg" xmlns:xlink="http://www.w3.org/1999/xlink" xmlns:sketch="http://www.bohemiancoding.com/sketch/ns">
    <!-- Generator: Sketch 3.3.2 (12043) - http://www.bohemiancoding.com/sketch -->
    <title>Imported Layers</title>
    <desc>Created with Sketch.</desc>
    <defs></defs>
    <g id="Page-1" stroke="none" stroke-width="1" fill="none" fill-rule="evenodd" sketch:type="MSPage">
        <path d="M89.1280046,78.41925 C89.1280046,67.36525 98.0900046,58.40125 109.146005,58.40125 C120.201005,58.40125 129.164005,67.36525 129.164005,78.41925 C129.164005,89.47625 120.201005,98.43725 109.146005,98.43725 C98.0900046,98.43725 89.1280046,89.47625 89.1280046,78.41925 L89.1280046,78.41925 Z M85.9520046,78.41925 C85.9520046,91.22925 96.3360046,101.60625 109.146005,101.60625 C121.947005,101.60625 132.332005,91.22225 132.332005,78.41925 C132.332005,65.61125 121.954005,55.22725 109.146005,55.22725 C96.3360046,55.22725 85.9600046,65.61125 85.9520046,78.41925 L85.9520046,78.41925 Z M61.0200046,84.96525 C59.9160046,87.56225 61.1140046,90.56425 63.7120046,91.66925 C64.3620046,91.94425 65.0400046,92.08125 65.7110046,92.08125 C67.6950046,92.08125 69.5790046,90.91825 70.4090046,88.97725 C74.8980046,78.45625 75.7120046,69.99125 72.8910046,63.08425 C69.1250046,53.85525 60.0320046,50.09525 52.7290046,47.07125 C48.8240046,45.45525 43.9690046,43.44325 44.0760046,41.81925 C44.6400046,33.36225 53.0900046,28.17325 57.0230046,26.20325 L90.9530046,44.22125 C93.4430046,45.54225 96.5400046,44.59825 97.8590046,42.10725 C99.1800046,39.61725 98.2360046,36.52825 95.7450046,35.20225 L57.5790046,14.93825 L55.4210046,15.74025 C54.5910046,16.04825 35.0630046,23.53925 33.8880046,41.14725 C33.6920046,44.04925 34.4720046,48.24825 39.3060046,51.74925 C41.9760046,53.68325 45.3030046,55.06125 48.8240046,56.51925 C54.9520046,59.05125 61.2880046,61.67125 63.4380046,66.95325 C65.1470046,71.14625 64.3330046,77.20725 61.0200046,84.96525 L61.0200046,84.96525 Z M64.1090046,9.07125 C64.1090046,21.17325 82.2580046,21.17325 82.2580046,9.07125 C82.2580046,-3.02375 64.1090046,-3.02375 64.1090046,9.07125 L64.1090046,9.07125 Z M3.16800462,78.41925 C3.16800462,67.36525 12.1300046,58.40125 23.1860046,58.40125 C34.2410046,58.40125 43.2040046,67.36525 43.2040046,78.41925 C43.2040046,89.47625 34.2410046,98.43725 23.1860046,98.43725 C12.1300046,98.43725 3.16800462,89.47625 3.16800462,78.41925 L3.16800462,78.41925 Z M4.61939202e-06,78.41925 C4.61939202e-06,91.22925 10.3760046,101.60625 23.1860046,101.60625 C35.9870046,101.60625 46.3710046,91.22225 46.3710046,78.41925 C46.3710046,65.61125 35.9870046,55.22725 23.1860046,55.22725 C10.3760046,55.22725 -0.00799538061,65.61125 4.61939202e-06,78.41925 L4.61939202e-06,78.41925 Z" id="Imported-Layers" fill="#000000" sketch:type="MSShapeGroup"></path>
    </g>
</svg>