<?xml version="1.0" encoding="UTF-8" standalone="no"?>
<svg width="86px" height="90px" viewBox="0 0 86 90" version="1.1" xmlns="http://www.w3.org/2000/svg" xmlns:xlink="http://www.w3.org/1999/xlink" xmlns:sketch="http://www.bohemiancoding.com/sketch/ns">
    <!-- Generator: Sketch 3.3.2 (12043) - http://www.bohemiancoding.com/sketch -->
    <title>Imported Layers</title>
    <desc>Created with Sketch.</desc>
    <defs></defs>
    <g id="Page-1" stroke="none" stroke-width="1" fill="none" fill-rule="evenodd" sketch:type="MSPage">
        <path d="M71.204,8.474 L71.204,1.794 C71.204,0.803 70.401,0 69.41,0 L59.492,0 C58.501,0 57.698,0.803 57.698,1.794 L57.698,8.474 L27.523,8.474 L27.523,1.794 C27.523,0.803 26.72,0 25.729,0 L15.811,0 C14.82,0 14.017,0.803 14.017,1.794 L14.017,8.474 L1.608,8.474 C0.72,8.474 0,9.194 0,10.082 L0,87.731 C0,88.619 0.72,89.339 1.608,89.339 L56.831,89.339 C59.487,89.339 62.034,88.284 63.911,86.406 L82.561,67.756 C84.272,66.045 85.233,63.725 85.233,61.305 L85.233,10.082 C85.233,9.194 84.513,8.474 83.625,8.474 L71.204,8.474 L71.204,8.474 Z M60.793,3.106 L68.098,3.106 L68.098,18.077 L60.793,18.077 L60.793,3.106 Z M17.135,3.106 L24.429,3.106 L24.429,18.077 L17.135,18.077 L17.135,3.106 Z M58.524,64.91 L58.524,85.122 L4.211,85.122 L4.211,34.63 L81.011,34.63 L81.011,62.63 L60.803,62.63 C59.544,62.63 58.524,63.651 58.524,64.91 L58.524,64.91 Z" id="Imported-Layers" fill="#000000" sketch:type="MSShapeGroup"></path>
    </g>
</svg>