<?xml version="1.0" encoding="UTF-8" standalone="no"?>
<svg width="190px" height="245px" viewBox="0 0 190 245" version="1.1" xmlns="http://www.w3.org/2000/svg" xmlns:xlink="http://www.w3.org/1999/xlink" xmlns:sketch="http://www.bohemiancoding.com/sketch/ns">
    <!-- Generator: Sketch 3.3.2 (12043) - http://www.bohemiancoding.com/sketch -->
    <title>youtube</title>
    <desc>Created with Sketch.</desc>
    <defs></defs>
    <g id="Page-1" stroke="none" stroke-width="1" fill="none" fill-rule="evenodd" sketch:type="MSPage">
        <path d="M0,194.0274 L0,168.1218 C0.088375,167.454 0.214625,166.7862 0.2525,166.1058 C0.606,158.7978 0.93425,151.4772 1.300375,144.1566 C1.99475,130.4856 13.13,119.0196 26.5125,118.4526 C39.1375,117.9108 51.775125,117.4824 64.41275,117.3186 C96.997875,116.865 129.583,116.9658 162.142875,118.44 C172.508,118.9062 180.184,124.0848 185.170875,133.2072 C187.847375,138.1212 187.98625,143.5266 188.33975,148.9446 C189.678,169.6968 189.70325,190.4238 188.453375,211.1634 C188.23875,214.8552 188.226125,218.61 187.468625,222.201 C184.792125,234.7254 174.25025,243.3186 161.42325,243.7218 C154.593125,243.9486 147.775625,244.0872 140.9455,244.3014 C103.032625,245.4858 65.11975,245.07 27.2195,243.684 C14.127375,243.1926 3.2825,233.2134 1.603375,220.2354 C1.098375,216.3168 1.047875,212.3226 0.820625,208.3662 C0.53025,203.5782 0.265125,198.8028 0,194.0274 L0,194.0274 Z M98.4245,136.962 L98.4245,221.7474 L109.91325,221.7474 L109.91325,217.6524 C110.102625,217.5264 110.292,217.4004 110.494,217.2744 C110.910625,217.8792 111.2515,218.5596 111.769125,219.0636 C116.819125,224.0154 128.080625,224.847 130.56775,214.8048 C130.908625,213.4188 131.161125,211.9698 131.161125,210.5586 C131.211625,197.9586 131.22425,185.3586 131.186375,172.7586 C131.186375,171.1332 130.997,169.4826 130.706625,167.8698 C129.28,159.7302 121.944875,155.8368 115.01375,159.6042 C113.208375,160.587 111.706,162.099 109.824875,163.548 L109.824875,136.962 L98.4245,136.962 L98.4245,136.962 Z M174.124,192.339 C173.757875,184.527 173.821,176.9292 172.899375,169.4448 C172.116625,163.0944 167.925125,159.075 161.536875,157.8276 C149.921875,155.547 140.478375,162.792 140.200625,173.7036 C139.897625,185.1948 139.91025,196.7112 140.31425,208.1898 C140.528875,214.1244 143.3695,219.1392 149.012875,221.8734 C153.39375,224.0028 158.001875,223.8642 162.61,222.705 C166.460625,221.7348 169.4275,219.492 171.2455,215.9892 C174.035625,210.6342 173.84625,204.813 173.707375,198.828 L167.773625,198.828 L162.07975,198.828 C161.915625,201.8646 161.814625,204.6492 161.57475,207.4338 C161.32225,210.3444 160.0345,211.5792 157.33275,211.7178 C154.40375,211.869 152.48475,210.6972 152.244875,207.8874 C151.803,202.797 151.7525,197.6814 151.537875,192.339 L174.124,192.339 L174.124,192.339 Z M54.274875,159.0876 C54.237,159.7932 54.199125,160.272 54.199125,160.7382 C54.199125,177.5214 54.1865,194.3046 54.21175,211.0752 C54.21175,212.5746 54.350625,214.0992 54.577875,215.5734 C55.449,221.0544 59.16075,223.5744 64.576875,222.453 C67.99825,221.7474 70.6495,219.7692 73.136625,217.476 C73.843625,216.8208 74.4875,216.1152 75.16925,215.4348 C75.333375,215.5356 75.484875,215.6238 75.649,215.712 L75.649,221.7348 L86.822125,221.7348 L86.822125,159.1506 L75.510125,159.1506 L75.510125,161.7336 L75.510125,202.6206 C75.510125,206.451 73.742625,209.0088 70.182375,210.3066 C67.859375,211.1508 66.268625,210.2436 65.889875,207.7992 C65.738375,206.7912 65.687875,205.758 65.687875,204.7374 C65.67525,190.3482 65.687875,175.9716 65.687875,161.595 L65.687875,159.0876 L54.274875,159.0876 L54.274875,159.0876 Z M54.350625,137.025 L14.82175,137.025 L14.82175,150.0408 L28.141125,150.0408 L28.141125,221.7726 L41.043875,221.7726 L41.043875,149.877 L54.350625,149.877 L54.350625,137.025 L54.350625,137.025 Z M53.70675,0 L44.275875,39.2742 C44.099125,40.0302 43.871875,40.7736 43.25325,41.5674 C39.200625,27.7704 35.9055,13.86 32.383125,0 L16.399875,0 C16.48825,0.3906 16.53875,0.8064 16.665,1.1844 C22.661875,21.0042 28.696625,40.8114 34.66825,60.6312 C35.059625,61.9164 35.249,63.315 35.261625,64.6506 C35.2995,76.9104 35.286875,89.1702 35.286875,101.43 L35.286875,103.6728 L51.270125,103.6728 L51.270125,101.2662 C51.270125,88.389 51.244875,75.5118 51.28275,62.6472 C51.28275,61.4376 51.472125,60.1776 51.813,59.031 C56.193875,44.6418 60.62525,30.2778 65.01875,15.9012 C66.622125,10.6218 68.137125,5.3046 69.69,0 L53.70675,0 L53.70675,0 Z M69.286,64.7388 C69.286,57.6198 69.10925,50.5008 69.323875,43.3818 C69.652125,32.6088 77.176625,26.6364 86.746375,25.5528 C91.190375,25.0488 95.5965,25.2882 99.724875,27.405 C106.315125,30.7944 109.888,36.2376 110.203625,43.5834 C110.481375,50.274 110.31725,57.0024 110.329875,63.7056 C110.355125,70.4088 110.329875,77.1246 110.3425,83.8278 C110.3425,87.9102 109.951125,91.9422 108.04475,95.5962 C103.7775,103.7988 96.442375,106.0668 87.89525,105.6006 C79.827875,105.147 73.742625,101.4174 70.889375,93.6684 C69.71525,90.4806 69.41225,86.877 69.273375,83.4246 C69.020875,77.2002 69.197625,70.9632 69.197625,64.7388 L69.286,64.7388 L69.286,64.7388 Z M95.8995,65.2806 C95.8995,58.3632 95.937375,51.4458 95.8995,44.5158 C95.87425,40.9752 93.6775,38.7828 90.16775,38.619 C86.089875,38.4426 83.766875,40.6098 83.75425,44.8056 C83.716375,58.3758 83.741625,71.9334 83.75425,85.5036 C83.75425,86.3856 83.867875,87.2802 84.044625,88.1496 C84.574875,90.657 86.342375,92.1942 88.88,92.4462 C93.04625,92.862 95.836375,90.3042 95.886875,85.8312 C95.95,78.9768 95.8995,72.135 95.8995,65.2806 L95.8995,65.2806 Z M148.773,103.7232 L162.711,103.7232 L162.711,27.342 L148.760375,27.342 L148.760375,29.9376 C148.760375,47.754 148.760375,65.5578 148.74775,83.3616 C148.74775,84.1554 148.785625,85.2642 148.331125,85.6674 C146.311125,87.4692 144.291125,89.4096 141.942875,90.657 C139.35475,92.0052 137.23375,90.5562 136.8045,87.6456 C136.640375,86.499 136.589875,85.3272 136.589875,84.168 C136.564625,66.0114 136.57725,47.8674 136.57725,29.7108 L136.57725,27.342 L122.525625,27.342 C122.48775,28.0728 122.43725,28.6776 122.43725,29.295 C122.43725,49.707 122.424625,70.1064 122.4625,90.5184 C122.4625,92.6352 122.63925,94.7772 123.018,96.8436 C123.95225,101.934 127.13375,104.7186 131.918625,104.8572 C136.312125,104.9958 140.01125,103.1688 143.356875,100.548 C145.149625,99.1368 146.765625,97.4862 148.773,95.6718 L148.773,103.7232 L148.773,103.7232 Z M109.86275,207.3834 C109.875375,207.9882 109.799625,208.6686 110.0395,209.1852 C110.834875,210.9492 114.05425,212.247 116.288875,211.806 C118.334125,211.4028 119.116875,210.3066 119.318875,207.5976 C119.35675,206.9802 119.394625,206.3628 119.40725,205.758 C119.40725,195.8166 119.419875,185.8878 119.382,175.959 C119.382,174.6738 119.268375,173.3382 118.9275,172.1034 C118.271,169.7346 116.288875,168.6132 113.864875,168.9912 C111.314625,169.3944 109.86275,171.0198 109.86275,173.4768 L109.86275,190.323 L109.86275,207.3834 L109.86275,207.3834 Z M161.47375,172.7586 C161.17075,170.4528 159.55475,169.2936 157.168625,169.1676 C154.618375,169.0542 152.73725,170.0496 152.345875,172.3302 C151.82825,175.3794 151.790375,178.5042 151.537875,181.6794 L162.07975,181.6794 C161.890375,178.5672 161.839875,175.644 161.47375,172.7586 L161.47375,172.7586 Z" id="youtube" fill="#000000" sketch:type="MSShapeGroup"></path>
    </g>
</svg>