<?xml version="1.0" encoding="UTF-8" standalone="no"?>
<svg width="131px" height="240px" viewBox="0 0 131 240" version="1.1" xmlns="http://www.w3.org/2000/svg" xmlns:xlink="http://www.w3.org/1999/xlink" xmlns:sketch="http://www.bohemiancoding.com/sketch/ns">
    <!-- Generator: Sketch 3.3.2 (12043) - http://www.bohemiancoding.com/sketch -->
    <title>facebook</title>
    <desc>Created with Sketch.</desc>
    <defs></defs>
    <g id="Page-1" stroke="none" stroke-width="1" fill="none" fill-rule="evenodd" sketch:type="MSPage">
        <path d="M125.813455,0.0406666667 L94.4509091,0 C59.2269091,0 36.4618182,23.1122222 36.4618182,58.8853333 L36.4618182,86.0506667 L4.92436364,86.0506667 C2.20654545,86.0506667 0,88.2331111 0,90.9306667 L0,130.282444 C0,132.966444 2.20654545,135.162444 4.92436364,135.162444 L36.4618182,135.162444 L36.4618182,234.443333 C36.4618182,237.127333 38.6683636,239.323333 41.3861818,239.323333 L82.5301818,239.323333 C85.248,239.323333 87.4545455,237.127333 87.4545455,234.443333 L87.4545455,135.162444 L124.32,135.162444 C127.051273,135.162444 129.257818,132.966444 129.257818,130.282444 L129.271273,90.9306667 C129.271273,89.6428889 128.746545,88.3957778 127.831636,87.474 C126.903273,86.5657778 125.638545,86.0506667 124.333455,86.0506667 L87.4545455,86.0506667 L87.4545455,63.0333333 C87.4545455,51.972 90.1185455,46.3464444 104.689818,46.3464444 L125.813455,46.3328889 C128.531273,46.3328889 130.737818,44.1504444 130.737818,41.4664444 L130.737818,4.92066667 C130.737818,2.23666667 128.531273,0.0542222222 125.813455,0.0406666667" id="facebook" fill="#000000" sketch:type="MSShapeGroup"></path>
    </g>
</svg>