<?xml version="1.0" encoding="utf-8"?>
<!-- Generator: Adobe Illustrator 15.1.0, SVG Export Plug-In . SVG Version: 6.00 Build 0)  -->
<!DOCTYPE svg PUBLIC "-//W3C//DTD SVG 1.1//EN" "http://www.w3.org/Graphics/SVG/1.1/DTD/svg11.dtd">
<svg version="1.1" id="Calque_1" xmlns="http://www.w3.org/2000/svg" xmlns:xlink="http://www.w3.org/1999/xlink" x="0px" y="0px"
	 width="737px" height="283px" viewBox="0 0 737 283" enable-background="new 0 0 737 283" xml:space="preserve">
<path fill="#009036" d="M221.09,58.3c-2.397-3.606-5.576-5.597-9.231-5.587c-5.55,0.021-11.897,4.409-18.628,13.52
	c-11.367,15.434-23.92,44.619-38.242,78.606c-5.663-9.762-18.868-23.947-37.708-23.967c-4.651,0-9.619,0.867-14.876,2.878
	c-20.137,7.699-26.88,26.309-26.873,38.83c0,21.295,16.128,38.918,35.521,39.309c0.208,0.006,0.417,0.006,0.622,0.006
	c11.539,0,19.696-6.304,24.913-12.544c3.772-4.506,6.05-8.999,7.032-11.17c7.827,19.016,16.11,34.417,21.909,41.711
	c5.228,6.549,10.834,10.134,16.378,10.141h0.007c5.243,0,10.234-3.265,14.472-9.845c11.492-17.795,19.434-44.663,25.176-70.464
	c3.383-15.262,5.678-36.651,5.678-55.411c0-7.42-0.36-14.427-1.154-20.48C225.196,67.13,223.498,61.908,221.09,58.3z
	 M140.341,175.924c-2.641,5.184-9.283,15.769-19.545,18.011c-1.201,0.266-2.482,0.4-3.821,0.4
	c-9.212-0.007-20.654-6.405-23.089-19.646c-0.303-1.636-0.454-3.326-0.454-5.025c0.013-9.556,4.856-19.44,16.251-23.078
	c1.864-0.593,3.688-0.876,5.466-0.876c10.878-0.04,20.483,10.784,26.431,27.603C141.411,173.703,141.004,174.642,140.341,175.924z
	 M208.292,165.979c-5.694,8.488-12.912,12.437-19.076,12.433c-0.4,0-0.798-0.017-1.198-0.05
	c-15.115-1.205-26.207-21.376-30.544-29.248c2.859-6.954,7.662-18.281,14.262-28.269c6.68-10.127,15.203-18.814,25.246-20.324
	c0.863-0.135,1.712-0.195,2.529-0.195c5.858,0.003,10.47,3.248,13.675,8.186c3.203,4.934,4.938,11.539,4.938,18.037
	C218.123,144.502,213.974,157.497,208.292,165.979z M288.823,148.238l4.156,1.37c1.185,0.457,1.912,1.369,1.912,2.918
	c0,0.821-0.179,1.729-0.542,2.827l-11.776,29.924l-12.776-40.143h-17.975c-0.363,1.094-0.145,2.699,0.074,3.555
	c4.279,1.474,5.685,1.124,7.199,5.096l15.453,43.622l9.121-2.642l15.883-37.955c1.641-4.19,3.373-7.657,4.921-9.394
	c0.101-0.363,0.101-1.919,0.101-2.282h-15.653C288.651,146.229,288.651,147.054,288.823,148.238z M408.884,188.199l-0.465-18.063
	v-20.895c0-3.562-2.281-5.109-5.832-5.109c-4.379,0-9.68,1.182-14.143,2.457v3.651h7.569v19.801l-0.276,13.691
	c-2.83,1.272-6.557,3.006-11.871,3.006c-6.074,0-6.92-4.423-7.014-9.717v-27.868c0-3.474-2.01-5.021-5.745-5.021
	c-4.289,0-9.493,1.094-14.511,2.457v3.651h7.76v28.646c0,8.572,0.996,16.883,14.509,16.883c7.115,0,12.315-4.006,16.97-8.572
	c0.095,5.291,2.643,8.387,7.482,8.387c6.018,0,10.396-2.816,13.685-4.833l-0.276-2.551H408.884z M467.599,188.199l-0.37-18.703
	v-48.813c0-3.65-1.286-4.564-4.743-4.564c-4.291,0-11.133,0.914-16.064,1.924v4.288h8.395v22.895
	c-2.191-0.366-4.379-0.636-7.849-0.636c-14.321,0-25.734,10.575-25.734,27.366c0,19.161,9.858,23.812,19.713,23.812
	c6.203,0,10.676-3.555,13.776-7.021c0,3.373,1.191,7.021,5.832,7.021c6.755,0,11.322-2.282,15.25-4.463l-0.64-3.106H467.599z
	 M454.815,169.401l-0.272,15.422c-2.275,0.737-5.109,1.912-8.397,1.912c-6.927,0-11.764-5.197-11.764-16.691
	c0-13.415,3.471-19.891,12.861-19.891c3.563,0,5.664,0.828,7.572,1.461V169.401z M503.669,144.038
	c-13.961,0-25.004,13.503-25.004,26.827c0,17.334,9.127,24.903,24.183,24.903c14.415,0,25.272-13.5,25.272-26.73
	C528.12,151.98,519.904,144.038,503.669,144.038z M504.302,189.936c-9.855,0-12.399-10.04-12.399-20.807
	c0-9.848,2.457-19.434,11.032-19.434c9.687,0,11.773,9.673,11.773,21.17C514.708,180.351,513.072,189.936,504.302,189.936z
	 M554.767,186.826l-0.182-16.785v-21.897c0-3.193-1.461-4.012-4.288-4.012c-4.379,0-11.588,0.912-16.519,2.01v4.193h8.394v19.706
	l-0.27,16.148c0,2.01-0.821,3.558-2.46,4.109l-5.57,1.733c0,1.185,0.182,1.733,0.363,2.918h28.285
	c0.458-1.185,0.553-2.278,0.553-3.193l-6.755-1.64C555.315,189.845,554.767,189.202,554.767,186.826z M661.701,167.672
	c0-12.958-6.203-23.811-20.53-23.811c-15.149,0-25.482,13.198-25.482,27.617c0,14.832,9.064,24.29,25.576,24.29
	c8.491,0,15.876-3.551,19.797-8.209l-1.363-3.097c-5.476,1.272-10.494,1.875-13.88,1.875c-9.579,0-16.323-4.069-17.145-16.479
	h33.027V167.672z M628.586,164.932c0.27-10.764,4.655-15.69,10.494-15.69c6.738,0,9.303,6.472,9.303,15.69H628.586z M548.2,133.271
	c4.062,0,7.337-3.287,7.337-7.346c0-4.056-3.274-7.344-7.337-7.344c-4.056,0-7.354,3.289-7.354,7.344
	C540.846,129.984,544.145,133.271,548.2,133.271z M580.42,154.986c0-3.555,2.739-5.84,7.657-5.84
	c8.959,0,10.932,4.928,12.207,10.494l3.016,0.27l1.548-12.13c-5.375-2.743-9.976-3.828-15.855-3.828
	c-10.212,0-19.245,6.106-19.245,15.602c0,17.057,25.748,15.869,25.748,24.357c0,4.193-3.49,6.569-8.516,6.569
	c-7.078,0-11.713-4.927-12.9-12.042l-3.555-0.091l-0.817,13.503c5.466,2.457,10.665,3.911,17.098,3.911
	c9.396,0,20.826-4.456,20.826-16.411C607.631,163.565,580.42,164.754,580.42,154.986z M348.029,188.199l-0.635-18.246v-11.776
	c0-12.493-10.497-14.139-17.981-14.139c-7.84,0-15.697,4.105-19.43,6.755l1.371,3.558c4.742-1.279,9.212-1.912,12.499-1.912
	c7.479,0,11.225,2.362,11.225,8.565v5.961l-8.039,0.912c-9.845,1.185-20.618,4.277-20.618,16.28c0,6.388,4.752,11.611,12.411,11.611
	c7.931,0,13.138-4.561,16.417-8.579c0.365,5.298,2.109,8.488,8.771,8.488c3.553,0,9.121-2.373,11.946-5.015l-0.36-2.464H348.029z
	 M335.078,184.46c-2.927,1.366-6.119,2.555-9.946,2.555c-3.838,0-6.206-2.548-6.206-6.415c0-4.921,4.739-7.613,10.487-8.519
	l5.665-1.007V184.46z"/>
</svg>
