<?xml version="1.0" encoding="UTF-8" standalone="no"?>
<svg width="79px" height="96px" viewBox="0 0 79 96" version="1.1" xmlns="http://www.w3.org/2000/svg" xmlns:xlink="http://www.w3.org/1999/xlink" xmlns:sketch="http://www.bohemiancoding.com/sketch/ns">
    <!-- Generator: Sketch 3.3.2 (12043) - http://www.bohemiancoding.com/sketch -->
    <title>Imported Layers</title>
    <desc>Created with Sketch.</desc>
    <defs></defs>
    <g id="Page-1" stroke="none" stroke-width="1" fill="none" fill-rule="evenodd" sketch:type="MSPage">
        <path d="M27.32,80.1359849 C27.32,80.8749849 26.721,81.4749849 25.981,81.4749849 L25.244,81.4749849 C24.504,81.4749849 23.905,80.8749849 23.905,80.1359849 L23.905,0.942984921 C23.905,0.266984921 24.596,-0.189015079 25.218,0.0769849214 L69.916,19.2339849 C70.595,19.5249849 70.596,20.4869849 69.917,20.7789849 L27.32,39.1289849 L27.32,80.1359849 L27.32,80.1359849 Z M78.545,79.7669849 C78.545,88.3039849 61.129,95.1339849 39.273,95.1339849 C17.417,95.1339849 0,88.3039849 0,79.7669849 C0,73.6199849 8.196,68.8389849 20.49,66.1069849 L20.49,75.6689849 C18.441,76.6939849 17.075,78.0599849 17.075,79.7669849 C17.075,82.4989849 20.832,84.8899849 25.613,84.8899849 C30.393,84.8899849 34.15,82.4989849 34.15,79.7669849 C34.15,78.0599849 32.784,76.6939849 30.735,75.6689849 L30.735,64.7409849 C33.467,64.3999849 36.199,64.3999849 39.273,64.3999849 C61.128,64.3999849 78.545,71.2299849 78.545,79.7669849 L78.545,79.7669849 Z M58.055,78.0599849 C58.055,76.0109849 55.664,74.6449849 52.933,74.6449849 C50.201,74.6449849 47.81,76.0109849 47.81,78.0599849 C47.81,80.1089849 50.201,81.4749849 52.933,81.4749849 C55.664,81.4749849 58.055,80.1089849 58.055,78.0599849 L58.055,78.0599849 Z" id="Imported-Layers" fill="#000000" sketch:type="MSShapeGroup"></path>
    </g>
</svg>